<?xml version="1.0" encoding="utf-8"?>
<!-- Generator: Adobe Illustrator 22.1.0, SVG Export Plug-In . SVG Version: 6.00 Build 0)  -->
<svg version="1.1" id="Ebene_1" xmlns="http://www.w3.org/2000/svg" xmlns:xlink="http://www.w3.org/1999/xlink" x="0px" y="0px"
	 viewBox="0 0 595.3 558" style="enable-background:new 0 0 595.3 558;" xml:space="preserve">
<style type="text/css">
	.st0{fill:none;}
	.st1{fill:#F8C027;}
	.st2{fill:#B89279;}
	.st3{fill:#9A745A;}
	.st4{fill:#A7B1B2;}
	.st5{fill:#A2AEB0;}
	.st6{fill:#222631;}
	.st7{fill:#212632;}
	.st8{fill:#262830;}
	.st9{fill:#9AA9B0;}
	.st10{fill:#A3ABA6;}
	.st11{fill:#875E54;}
	.st12{fill:#875E53;}
	.st13{fill:#885F54;}
	.st14{fill:#70473D;}
	.st15{fill:#E1E2E3;}
	.st16{fill:#70483E;}
	.st17{fill:#855C52;}
	.st18{fill:#865F54;}
	.st19{fill:#EEEEEF;}
</style>
<line class="st0" x1="271" y1="327.1" x2="281.8" y2="325.6"/>
<g>
	<g>
		<path class="st1" d="M579.2,90.7c-0.1-17.3-8.3-25.2-24.6-25.4c-24.1-0.3-48.2-1.2-72.2,3.1c-13.2,2.4-26.5,5.3-40.1-0.3
			c-49-20.1-100.6-18.2-151.8-14.8c-13.7,0.9-24.9-0.7-36.5-7c-18.6-10-37.3-20.2-56.7-28.2c-23.4-9.7-32.9-4.7-40.7,19.6
			c-5.3,16.5-9.6,33.3-13.9,50.1c-7.4,29.1-11.4,59.8-36.1,81.2c3.7,18.8,25.6,17.4,34.4,31.2c-10-2.3-17.3-9-25.9-13.3
			c-6.4-3.2-8.5-17.9-20-0.8c-2.1,3.7-4.1,7.4-6.2,11.2c-8.5,17.4,11,13.2,18.8,16.6c13.4,5.9,27,11.4,39.6,19.1
			c-12.6-2.3-23.1-10.1-35.2-13.6c-10.3-3-19.8-12.7-31.7-4.7c-16.5,42.3-26.6,85.8-30.2,131.3C44.7,413,60.7,443.4,116.5,466
			c6.6-9,0.6-17.5-1.2-25.9c-14.1-63.9,6-114.2,60.7-150.5c5-3.4,10.1-6.7,14.2-11.3c7.3-9.2,12.7-5.4,16.7,2.8
			c8,16.8,19.2,16.8,32.5,6.6c8.4-6.4,15.3-6.9,23.4,1.5c19.4,19.9,20.1,20.1,44.4,3.8c11.2-7.5,14.3-3.2,15.6,7.4
			c2.9,8,8.5,14.2,13.4,20.8c36.6,50.3,38.5,105.3,5.1,158.3c-4,6.3-11.6,12.4-8.6,20.8c26.2-2.9,54.9-4.8,80.9-9.3
			c43.4-7.4,85.6-19.1,121.3-46.6c22.2-17.1,33.3-38.8,22.8-67.4c-4.2-11.5-7.8-24.2-4-35.5c21.9-65,1.5-133.9,20-199.2
			C578.3,125.8,579.2,108.2,579.2,90.7z"/>
		<path class="st2" d="M285,330.7c-1.7,3.8-2.7,8.1-2.7,13.2C282.3,346.5,284.3,338.5,285,330.7z"/>
		<path class="st2" d="M312,389.1c1.1-0.6,2.2-1.1,3.4-1.6l0.6-4l-0.6,4c2.2-1,4.3-2.1,6.1-3.7c9.7-26,5.6-49.5-12.5-70.6
			c-2.3-0.5-4.6-0.5-6.9,0.2c-7.7,4.5-12.1-5.4-15.4,1.9c-0.7,7.8-4.3,31.2-4.3,28.6c0-5,1-9.3,2.7-13.2c0.5-6.1,0.3-12-2.3-12.6
			c-3.6-0.8-4.6-6-7-0.6c0.1,0.3-2-0.9-1.9-0.7c1.4,6.3,6,0,6.2-5.9c0.4-9-6.8,8.2-5.2,4.7c-10.8-27.5-19.7-23.4-45.7-9.9
			c-10.6,5.5-16.2,3.2-21.6-6.5c-4.9-8.8-6.7-20.3-18.5-23.8c-28.4,14-52.1,33.2-67.5,61.4c-22.9,42.1-20.2,85.4-5,129.1
			c6.8,13.1,14,27.4,24.5,38.4c14.4,2.5,28.8,15.1,42.4-2.1c0.1-0.3,0.2-0.6,0.3-0.8l-0.3,0l0.3,0c3.9-10.8-0.9-27.4,16.6-29.4
			c17.7-2.1,21.6,11.3,25.6,23.9l5.8-0.8l-5.8,0.8c0.4,1.1,0.7,2.2,1.1,3.3c0.5,1.4,1.5,2.5,2.6,3.6c30.6,3.2,73-35,80.4-72.3
			c-0.9-3.4,1.5-7.2,0.2-10.1l-0.2,1.1l0.2-1.1c-0.1-0.2-0.2-0.5-0.4-0.7C297.7,402.5,293.5,398.9,312,389.1z"/>
		<path class="st2" d="M273.6,323.7c-0.1-0.3-0.2-0.5-0.3-0.7c-1.6,3.5-2.7,9.1-3.1,18.1C269.9,347.1,275,330,273.6,323.7z"/>
		<path class="st3" d="M314.7,391.8l1.3-7.9C313.8,386.2,313.6,388.9,314.7,391.8z"/>
		<path class="st3" d="M324.1,297.4c-11.4,0.7-30.6,7.6-25.4,20.3c9.3,22.9,13.4,39,13.4,65.8c0,0,1.1,3.4,1,3.4l1.6,4.8
			c0.1,0.2,0.1,0.4,0.2,0.5c17.2,14.5,18.4,11.3-2.2,26.3c-1.7,1.2-6.6,0-7.7,1.8c-8.5,20.7-19.1,34.6-33.2,46.1
			c-10.5,8.6-22.9,15.9-39.3,22.7c-4,1.6-8.5,11.5-10.2,13.9c-15,20.3-25,1.8-38.9-1.6c-8.3,1.1-13.4,1.5-19.1,2.1
			c-6.6,0.6-23.2,0.8-23.2,0.8s11.5,9.7,18.1,13.8c3.6,2.2,6.9,4.5,10.6,6.5c2.2,1.2,4.3,2.5,6.6,3.5c2.4,1.1,4.6,2.4,7,3.4
			c2.5,1,5,2.3,7.6,3.2c1.3,0.4,2.3,1,3.6,1.3c0.5,0.2,1.2,0.4,1.8,0.6c2.6,1.1,5.9,1.8,7.8,2.4c5.6,2,14.3,3.5,22.9,4.2
			c3,0.2,6,0.4,8.8,0.5c1.3,0,2.5-0.1,3.6,0c2.3,0.1,4.5-0.2,6.7-0.3c6.5-0.5,12.9-1.8,19.1-3.1c10.8-2.2,19.8-6.2,30.9-12.1
			c7.5-4,14.8-9,22.7-15.3c4.9-4,9.7-8.5,14.7-13.6c12.6-12.5,21.1-26.5,27.4-43.6c0.3-0.8,0.6-1.7,0.9-2.5c0.6-1.7,1-3.4,1.6-5.1
			c1.2-3.3,1.5-4.9,2.4-8.7c0.5-2.1,0.8-3.6,0.9-4.1c5.4-25.6,5.4-50.1-1.7-72.8c-1.5-4.8-3.7-12.2-6.8-19c-2.6-6-6-11.5-8.1-15.5
			c-2-3.8-4.3-6.6-6.3-9.4c-3.5-4.8-7.1-9.2-12.1-14.1C329.6,302.5,326.7,300.2,324.1,297.4z"/>
		<path class="st4" d="M106.5,169.2c12.7,8.1,25.4,16.1,38,24.3c5,3.3,11.5,6.8,6.4,14c-4.3,6-9.2,0.8-13.8-1.3
			c-14.2-6.3-23.1-14.4-39.8-22.3c-22.1-13.9-46.5-25.3-68.6-39.2c-7.2-4.5-19.5-8.2-13.1-19.1c5.9-10.1,14.8-0.9,21.3,2.8
			C60.3,141.5,83.3,155.5,106.5,169.2z"/>
		<path class="st5" d="M86.8,200.2c19.8,10,41.6,15.5,61.2,25.2c5.7,2.8,16.1,4,12.7,12.4c-4,10.1-12.6,2.9-19.3,0.7
			c-21.3-6.9-40-15.8-61-23.6c-19.1-8.5-38.3-17-57.3-25.7c-6.3-2.9-13.4-6.9-9.7-15c4.1-8.9,11.9-3.8,17.5-1.2
			C51.9,182.9,67.5,192,86.8,200.2z"/>
		<path class="st6" d="M242.5,189.9c0.2,23-18.3,41.7-41.3,41.7c-21.1,0-39.5-19-39.6-41c-0.2-21.7,17.9-41.2,38.9-42
			C222.2,147.7,242.3,167.4,242.5,189.9z"/>
		<path class="st7" d="M379.1,245.1c-24.8,22.4-55,19-66.2-7.9c-7.6-18.1-4-34.4,10.2-47.3c14.5-13.2,31.5-14.8,47.8-3.8
			c16,10.7,21.6,26.6,17.3,45.4C386.8,237.3,383.4,241,379.1,245.1L379.1,245.1z"/>
		<path class="st8" d="M324.1,297.4c-7.2,5.9-13,13-20.2,18.9c0,0,0,0,0,0c-9.6,6.7-18.4,22.9-30,4.7c-20.4-24.7-20.6-24.7-45.4-7.7
			c-11,7.5-17.6,5.3-23.1-5.8c-5.3-10.7-10.9-21.3-16.3-32c0.5-5.9,0-13.1,7.9-14.1c7.4-0.9,10.4,5.7,12.3,11.2
			c6.2,18,14.4,25.4,30.2,8.1c10.5-11.4,20.9-8.1,26.8,4.3c11.4,23.6,23.8,18,38.1,3.4c4.6-4.7,10.2-11,17.3-8.8
			C332.8,283.2,328.5,290.7,324.1,297.4z"/>
		<path class="st9" d="M443.9,288.1c-22.6,0-45.2,0.1-67.8-0.1c-5.7,0-13.7,1.3-13.7-7.4c0.1-7.3,7.3-6.2,12.3-6.2
			c46.7,0.1,93.5,0.4,140.2,0.7c5.4,0,12.2,0.4,12.5,6.8c0.5,9.5-8.2,6.8-13.5,6.9C490.6,289.1,467.2,288.1,443.9,288.1
			C443.9,287.8,443.9,288.4,443.9,288.1z"/>
		<path class="st10" d="M382.4,248.7C382.4,248.7,382.4,248.7,382.4,248.7c46.3-5.7,92.1-11.6,138.5-17.3c6.8-0.8,15.2-3,16.5,6
			c1.1,7.7-7.8,8.4-13.3,9c-42.6,5.1-85.3,9.7-128,14.3C387.8,261.6,380.7,259.6,382.4,248.7z"/>
		<path class="st11" d="M257.5,427.4c-1.4,13.6-10.1,23.6-25.1,23.6c-16.9,0-24.3-12.4-24-26.7c0.3-14.2,10.5-23.5,25.4-22.5
			C248.6,403,257.5,412.1,257.5,427.4z"/>
		<path class="st12" d="M207.8,346.6c-0.7,15.9-8.5,23.8-24.1,23.3c-14.5-0.5-21.9-8.3-21.9-22.6c0-15.9,8.6-26.7,23.9-26.3
			C200,321.4,207.4,332.4,207.8,346.6z"/>
		<path class="st13" d="M158.5,424.1c12.4-0.3,16.8,7.3,16.1,17c-0.6,8.2-6.6,14.1-14.9,14.1c-8.4,0-14.3-5.7-15-14
			C143.7,431.1,151.2,424.4,158.5,424.1z"/>
		<path class="st14" d="M279.4,495.2c0.7-17.4,6.9-25.7,20.9-25.5c13.7,0.1,21,8,20.3,21.7c-0.7,12.9-8.8,22.2-21.1,22.2
			C287.1,513.6,278.3,505.7,279.4,495.2z"/>
		<path class="st15" d="M187.9,188.9c-5.7,0.1-9.1-3.1-10-7.7c-1.3-6.2,2.5-10.3,8.4-11.2c5.2-0.8,8.8,2.9,9.7,7.6
			C197.2,183.6,193.5,187.3,187.9,188.9z"/>
		<path class="st16" d="M183.4,501.6c4.6,7.2,13.1,12,22.7,12c12.3,0,26.4-14.8,26.4-24.4l-15,4.7l-11.1,3.5L183.4,501.6
			C183.4,501.6,183.4,501.6,183.4,501.6z"/>
		<path class="st17" d="M232.5,489c0-13.6-11.8-24.6-26.4-24.6c-14.6,0-26.4,11-26.4,24.6c0,4.6,1.3,8.9,3.7,12.6l7.8-1.1l14.3-2.9
			l9.3-2.4l8.6-2.6l9.1-3.3"/>
		<path class="st0" d="M183.4,501.5c7.7-1.5,15.5-2.8,23.3-4.2c8.6-1.6,17.3-6.5,25.9-8.1"/>
	</g>
	<path class="st11" d="M312,383.5c-12.8,0-22.6,8.5-22.6,19c0,9.8,9,17.7,20.5,18.8l5.4-35.9C314.4,385.4,313.2,383.5,312,383.5z"/>
	<path class="st16" d="M312,383.5c-0.4,6.4-0.8,13.2-2.1,19c-1.3,6.1-2.8,12.2-5,17.9c1.8,0.6,4.3,1.2,7.7,1.2
		c12.8,0,19.8-6.5,19.8-17C332.5,395,322.7,385.2,312,383.5z"/>
	<path class="st18" d="M284.6,347.5c0,10.2-6.9,18.5-15.5,18.5c-8.6,0-15.5-8.3-15.5-18.5s-1.7-15.3,6.8-15.3
		C269,332.2,284.6,337.3,284.6,347.5z"/>
</g>
<path class="st0" d="M281.6,325.6c0,0.8-4.8,1.4-10.6,1.4"/>
<path class="st6" d="M389.7,219.2c0.2,23-18.3,41.7-41.3,41.7c-21.1,0-39.5-19-39.6-41c-0.2-21.7,17.9-41.2,38.9-42
	C369.4,176.9,389.5,196.7,389.7,219.2z"/>
<path class="st19" d="M349.2,210.7c-0.6,5-3.3,8.4-8.2,8.7c-6.2,0.3-9.6-3.6-9.4-9.6c0.3-6,4.4-9.6,10.3-8.6
	C346.3,201.9,349.5,205.4,349.2,210.7z"/>
<path class="st0" d="M141,504.4c60.2,0.1,103.1-14.7,131.3-38.3c42.3-35.4,50-90.9,27.3-146.3"/>
<path class="st0" d="M141,504.4c90,73.2,163.9,30.6,201.6-15.2c32.3-39.3,47.4-134.5-18.6-191.8"/>
</svg>
